<svg width="18" height="18" viewBox="0 0 18 18" fill="none" xmlns="http://www.w3.org/2000/svg">
<path d="M9 11.9988C9.39782 11.9988 9.77936 12.1568 10.0607 12.4381C10.342 12.7194 10.5 13.101 10.5 13.4988C10.5 13.8966 10.342 14.2781 10.0607 14.5594C9.77936 14.8407 9.39782 14.9988 9 14.9988C8.60218 14.9988 8.22064 14.8407 7.93934 14.5594C7.65804 14.2781 7.5 13.8966 7.5 13.4988C7.5 13.101 7.65804 12.7194 7.93934 12.4381C8.22064 12.1568 8.60218 11.9988 9 11.9988ZM9 7.49878C9.39782 7.49878 9.77936 7.65681 10.0607 7.93812C10.342 8.21942 10.5 8.60095 10.5 8.99878C10.5 9.3966 10.342 9.77813 10.0607 10.0594C9.77936 10.3407 9.39782 10.4988 9 10.4988C8.60218 10.4988 8.22064 10.3407 7.93934 10.0594C7.65804 9.77813 7.5 9.3966 7.5 8.99878C7.5 8.60095 7.65804 8.21942 7.93934 7.93812C8.22064 7.65681 8.60218 7.49878 9 7.49878V7.49878ZM9 2.99878C9.39782 2.99878 9.77936 3.15681 10.0607 3.43812C10.342 3.71942 10.5 4.10095 10.5 4.49878C10.5 4.8966 10.342 5.27813 10.0607 5.55944C9.77936 5.84074 9.39782 5.99878 9 5.99878C8.60218 5.99878 8.22064 5.84074 7.93934 5.55944C7.65804 5.27813 7.5 4.8966 7.5 4.49878C7.5 4.10095 7.65804 3.71942 7.93934 3.43812C8.22064 3.15681 8.60218 2.99878 9 2.99878Z" fill="black"/>
</svg>
